<svg viewBox="0 0 20 20" fill="none" xmlns="http://www.w3.org/2000/svg" focusable="false" class="chakra-icon css-g25e30"><rect width="100%" height="100%" fill="url(#commonDatasetColor_svg__a)"></rect><path fill-rule="evenodd" clip-rule="evenodd" d="M4.28 5.365c-.102.2-.102.461-.102.984v1.68c0 .523 0 .784.102.984.09.175.232.318.408.408.2.101.461.101.984.101h8.726c.523 0 .784 0 .984-.101a.933.933 0 0 0 .408-.408c.102-.2.102-.461.102-.984V6.35c0-.523 0-.784-.102-.984a.933.933 0 0 0-.408-.408c-.2-.101-.46-.101-.984-.101H5.672c-.523 0-.784 0-.984.101a.933.933 0 0 0-.408.408Zm2.374 2.699a.875.875 0 1 0 0-1.75.875.875 0 0 0 0 1.75ZM4.28 10.987c-.102.2-.102.461-.102.984v1.68c0 .523 0 .784.102.984.09.175.232.318.408.408.2.101.461.101.984.101h8.726c.523 0 .784 0 .984-.101a.933.933 0 0 0 .408-.408c.102-.2.102-.461.102-.984v-1.68c0-.523 0-.784-.102-.984a.933.933 0 0 0-.408-.408c-.2-.101-.46-.101-.984-.101H5.672c-.523 0-.784 0-.984.101a.933.933 0 0 0-.408.408Zm2.374 2.699a.875.875 0 1 0 0-1.75.875.875 0 0 0 0 1.75Z" fill="#fff"></path><defs><linearGradient id="commonDatasetColor_svg__a" x1="1.5" y1="20" x2="20" y2="0" gradientUnits="userSpaceOnUse"><stop stop-color="#4484FF"></stop><stop offset="1" stop-color="#5CA7FF"></stop></linearGradient></defs></svg>